<svg xmlns="http://www.w3.org/2000/svg" viewBox="0 0 512 512" fill="none">
  <defs>
    <linearGradient id="bgGrad" x1="0%" y1="0%" x2="100%" y2="100%">
      <stop offset="0%" stop-color="#1DB954"/>
      <stop offset="100%" stop-color="#1ed760"/>
    </linearGradient>
    <linearGradient id="shineGrad" x1="0%" y1="0%" x2="0%" y2="100%">
      <stop offset="0%" stop-color="rgba(255,255,255,0.3)"/>
      <stop offset="50%" stop-color="rgba(255,255,255,0)"/>
    </linearGradient>
    <filter id="shadow" x="-20%" y="-20%" width="140%" height="140%">
      <feDropShadow dx="0" dy="4" stdDeviation="8" flood-opacity="0.3"/>
    </filter>
  </defs>
  
  <!-- Background rounded square -->
  <rect width="512" height="512" rx="112" fill="url(#bgGrad)" filter="url(#shadow)"/>
  
  <!-- Inner shine -->
  <rect x="16" y="16" width="480" height="240" rx="96" fill="url(#shineGrad)" opacity="0.4"/>
  
  <!-- Skull head -->
  <path d="M256 70c-90 0-156 50-156 115 0 50 35 90 85 108v75c0 8 8 16 16 16h110c8 0 16-8 16-16v-75c50-18 85-58 85-108 0-65-66-115-156-115z" fill="#0a0a0a"/>
  
  <!-- Eye sockets -->
  <ellipse cx="190" cy="235" rx="42" ry="50" fill="url(#bgGrad)"/>
  <ellipse cx="322" cy="235" rx="42" ry="50" fill="url(#bgGrad)"/>
  
  <!-- Nose -->
  <path d="M256 280l-22 35h44z" fill="url(#bgGrad)"/>
  
  <!-- Teeth lines -->
  <line x1="210" y1="320" x2="210" y2="360" stroke="url(#bgGrad)" stroke-width="12" stroke-linecap="round"/>
  <line x1="256" y1="320" x2="256" y2="360" stroke="url(#bgGrad)" stroke-width="12" stroke-linecap="round"/>
  <line x1="302" y1="320" x2="302" y2="360" stroke="url(#bgGrad)" stroke-width="12" stroke-linecap="round"/>
  
  <!-- PX text -->
  <text x="256" y="430" font-family="SF Pro Display, -apple-system, BlinkMacSystemFont, Helvetica Neue, Arial, sans-serif" font-size="56" font-weight="700" fill="#0a0a0a" text-anchor="middle" letter-spacing="-2">PX</text>
</svg>
