<svg xmlns="http://www.w3.org/2000/svg" xmlns:xlink="http://www.w3.org/1999/xlink" width="1024" zoomAndPan="magnify" viewBox="0 0 768 767.999994" height="1024" preserveAspectRatio="xMidYMid meet" version="1.0"><defs><clipPath id="f2266485e0"><path d="M 28 0.121094 L 586.71875 0.121094 L 586.71875 523.800781 L 28 523.800781 Z M 28 0.121094 " clip-rule="nonzero"/></clipPath><clipPath id="47b8b2b632"><path d="M 0.640625 0.121094 L 559 0.121094 L 559 523.800781 L 0.640625 523.800781 Z M 0.640625 0.121094 " clip-rule="nonzero"/></clipPath><clipPath id="f6762caf96"><rect x="0" width="587" y="0" height="524"/></clipPath></defs><g transform="matrix(1, 0, 0, 1, 92, 129)"><g clip-path="url(#f6762caf96)"><g clip-path="url(#f2266485e0)"><path fill="#206b00" d="M 582.355469 181.632812 C 559.890625 53.46875 427.722656 -17.371094 275.335938 4.496094 C 122.988281 26.363281 12.722656 141.234375 30.582031 260.820312 C 43.910156 350.269531 89.441406 401.527344 153.089844 425.898438 C 151.40625 430.578125 150.09375 435.449219 149.269531 440.578125 C 142.832031 480.265625 166.34375 517.105469 201.765625 522.875 C 229.171875 527.328125 255.679688 511.902344 269.269531 486.332031 C 283.160156 510.59375 310.417969 525.679688 339.996094 522.609375 C 365.832031 519.914062 387.097656 504.039062 397.808594 482.363281 C 417.128906 503.066406 445.769531 511.941406 472.054688 502.691406 C 508.632812 489.8125 526.753906 446.640625 512.527344 406.28125 C 509.53125 397.742188 505.300781 390.03125 500.171875 383.253906 C 563.597656 341.992188 599.167969 277.40625 582.355469 181.632812 Z M 582.355469 181.632812 " fill-opacity="1" fill-rule="nonzero"/></g><path fill="#206b00" d="M 285.332031 260.410156 C 290.277344 313.6875 257.140625 360.300781 211.347656 364.570312 C 165.519531 368.839844 124.371094 329.078125 119.429688 275.796875 C 114.488281 222.519531 147.625 175.867188 193.453125 171.636719 C 239.28125 167.402344 280.390625 207.09375 285.332031 260.410156 Z M 408.738281 143.402344 C 362.910156 147.671875 329.777344 194.285156 334.71875 247.566406 C 339.660156 300.84375 380.808594 340.609375 426.636719 336.339844 C 472.464844 332.070312 505.601562 285.457031 500.660156 232.179688 C 495.714844 178.898438 454.570312 139.171875 408.738281 143.402344 Z M 408.738281 143.402344 " fill-opacity="1" fill-rule="nonzero"/><path fill="#000000" d="M 285.332031 260.410156 C 289.601562 306.347656 265.527344 347.347656 229.433594 360.488281 C 188.285156 357.945312 153.203125 320.464844 148.671875 271.566406 C 144.402344 225.589844 168.476562 184.589844 204.609375 171.449219 C 245.757812 173.992188 280.804688 211.472656 285.332031 260.410156 Z M 423.53125 143.589844 C 385.453125 155.234375 359.578125 197.394531 363.996094 244.871094 C 368.378906 292.347656 401.550781 329.039062 441.128906 333.496094 C 479.203125 321.851562 505.078125 279.691406 500.660156 232.214844 C 496.242188 184.703125 463.105469 148.007812 423.53125 143.589844 Z M 312.964844 324.472656 L 303.792969 351.242188 C 301.65625 357.417969 307.011719 363.558594 313.414062 362.324219 L 341.195312 356.894531 C 347.597656 355.660156 350.257812 347.945312 345.949219 343.003906 L 327.378906 321.664062 C 323.074219 316.757812 315.0625 318.292969 312.964844 324.472656 Z M 312.964844 324.472656 " fill-opacity="1" fill-rule="nonzero"/><g clip-path="url(#47b8b2b632)"><path fill="#f8f8f8" d="M 554.433594 181.632812 C 531.96875 53.46875 399.800781 -17.371094 247.414062 4.496094 C 95.066406 26.363281 -15.199219 141.234375 2.660156 260.820312 C 15.988281 350.269531 61.515625 401.527344 125.167969 425.898438 C 123.484375 430.578125 122.171875 435.449219 121.347656 440.578125 C 114.910156 480.265625 138.421875 517.105469 173.84375 522.875 C 201.25 527.328125 227.757812 511.902344 241.347656 486.332031 C 255.238281 510.59375 282.496094 525.679688 312.074219 522.609375 C 337.910156 519.914062 359.175781 504.039062 369.886719 482.363281 C 389.203125 503.066406 417.847656 511.941406 444.132812 502.691406 C 480.710938 489.8125 498.832031 446.640625 484.605469 406.28125 C 481.609375 397.742188 477.378906 390.03125 472.25 383.253906 C 535.675781 341.992188 571.246094 277.40625 554.433594 181.632812 Z M 554.433594 181.632812 " fill-opacity="1" fill-rule="nonzero"/></g><path fill="#206b00" d="M 257.410156 260.410156 C 262.351562 313.6875 229.21875 360.300781 183.425781 364.570312 C 137.597656 368.839844 96.449219 329.078125 91.507812 275.796875 C 86.566406 222.519531 119.703125 175.867188 165.53125 171.636719 C 211.359375 167.402344 252.46875 207.09375 257.410156 260.410156 Z M 380.816406 143.402344 C 334.988281 147.671875 301.855469 194.285156 306.796875 247.566406 C 311.738281 300.84375 352.886719 340.609375 398.714844 336.339844 C 444.542969 332.070312 477.679688 285.457031 472.738281 232.179688 C 467.792969 178.898438 426.644531 139.171875 380.816406 143.402344 Z M 380.816406 143.402344 " fill-opacity="1" fill-rule="nonzero"/><path fill="#000000" d="M 257.410156 260.410156 C 261.679688 306.347656 237.605469 347.347656 201.511719 360.488281 C 160.363281 357.945312 125.28125 320.464844 120.75 271.566406 C 116.480469 225.589844 140.554688 184.589844 176.6875 171.449219 C 217.835938 173.992188 252.878906 211.472656 257.410156 260.410156 Z M 395.605469 143.589844 C 357.53125 155.234375 331.65625 197.394531 336.074219 244.871094 C 340.457031 292.347656 373.628906 329.039062 413.203125 333.496094 C 451.28125 321.851562 477.15625 279.691406 472.738281 232.214844 C 468.320312 184.703125 435.183594 148.007812 395.605469 143.589844 Z M 285.042969 324.472656 L 275.871094 351.242188 C 273.734375 357.417969 279.089844 363.558594 285.492188 362.324219 L 313.273438 356.894531 C 319.675781 355.660156 322.335938 347.945312 318.027344 343.003906 L 299.457031 321.664062 C 295.152344 316.757812 287.140625 318.292969 285.042969 324.472656 Z M 285.042969 324.472656 " fill-opacity="1" fill-rule="nonzero"/></g></g></svg>